<?xml version="1.0" encoding="UTF-8" standalone="no"?>
<svg
   ffdec:objectType="shape"
   height="57.450001"
   width="74.171036"
   version="1.1"
   id="svg9"
   xmlns="http://www.w3.org/2000/svg"
   xmlns:svg="http://www.w3.org/2000/svg"
   xmlns:ffdec="https://www.free-decompiler.com/flash">
  <g
     transform="translate(-196.45397,-189.35)"
     id="g7">
    <path
       d="m 270.55,213.95 v 28.9 q -19.9,3.9 -46.35,3.95 -24.2,-0.05 -42.75,-3.3 v -30.2 q 18.55,-3.25 42.75,-3.25 26.45,0 46.35,3.9"
       fill="url(#gradient0)"
       fill-rule="evenodd"
       stroke="none"
       id="path1"
       style="fill:url(#gradient0)"
       clip-path="url(#clipPath10)" />
    <path
       d="m 207.05,203.95 q 2,-2.6 4.3,-4.75 l 2.9,-2.55 1.4,-1.1 2.1,-1.4 q 0.9,-0.6 1.9,-1.15 l 0.3,-0.2 1.55,-0.8 0.7,-0.3 q 1.25,-0.6 2.55,-1.05 l 2.8,-0.75 0.9,-0.2 3.65,-0.35 h 0.6 l 2.95,0.2 0.2,0.05 0.4,0.05 1.65,0.3 1.85,0.35 1.35,0.3 0.95,0.25 0.95,0.25 2.7,0.9 2,0.75 0.5,0.2 1.7,0.8 0.3,0.15 2,1.1 -1.4,1.5 -4.1,-1.05 -0.15,0.15 -1.1,-1.55 V 194 h -0.05 l -5.4,1.05 -1,2.7 -8.05,-0.75 -1.75,4.4 2.05,1.25 -2.6,2.45 -2.3,-1.1 0.65,-1.2 -1.45,-2.15 -4.15,1.95 -1.85,-0.25 0.3,-2.65 -4.65,-1.95 -3.25,2.5 -0.4,3.9 -7.05,3.6 q 0.75,-1.45 1.8,-2.85 l 0.6,-0.75 0.15,-0.2 m -8.8,8.55 q 0.3,-0.45 1.2,-0.8 l 0.4,-0.1 2.55,-1.1 0.35,-0.15 q 3.25,0.9 1.15,3.3 l -0.95,0.85 q -1.25,0.75 -2.6,0.7 -0.8,-0.05 -1.1,-0.7 l -0.6,-0.45 4.15,-1.05 v -0.05 l -0.2,-1.75 -4.35,2.1 -0.05,0.2 -0.1,-0.15 q -0.15,-0.35 0,-0.6 l 0.15,-0.25 m 27.3,-18.75 1.45,-0.25 1.6,-1.5 2,0.55 0.6,3.1 3.6,0.65 2.05,-2.65 -0.8,-2.35 -5.25,-1.2 -3.45,1.15 -1.8,2.5 m 14.15,4.1 3.5,-0.95 0.8,1.35 -4.3,-0.4 m 24.9,10.05 0.1,-0.15 0.25,-0.15 h 0.1 l 1.6,0.2 q 0.95,0.3 1.25,1.05 l 0.05,0.25 v 0.4 l -1.7,-0.95 -1.65,-0.65 m 3.3,1.95 -0.25,0.9 q -0.2,0.45 -0.75,0.45 -2.1,-0.1 -2.55,-1.05 l 3.55,-0.3 m -21.9,-5.95 -0.35,-0.3 h 0.1 l 0.25,-0.1 v 0.4 m 0.95,-0.7 3.05,-0.95 2.75,2.75 -1.85,4.15 -3.6,-1.45 1.35,-1.75 -0.65,-0.5 0.75,-0.65 -0.95,-1.6 h -0.85 m -6.35,0.75 1.05,3.9 -3.8,2.5 0.5,-6.65 2.25,0.25 m -24.15,5.8 -2.8,-2.7 3.9,-2.35 1.2,2.25 1.1,-0.05 -0.3,3.3 -3.1,-0.45"
       fill="#ffffa6"
       fill-rule="evenodd"
       stroke="none"
       id="path2" />
    <path
       d="m 225.55,193.75 1.8,-2.5 3.45,-1.15 5.25,1.2 0.8,2.35 -2.05,2.65 -3.6,-0.65 -0.6,-3.1 -2,-0.55 -1.6,1.5 -1.45,0.25 m 14.15,4.1 -0.7,-0.1 1,-2.7 5.4,-1.05 h 0.05 v 0.05 l 1.1,1.55 1.45,2.05 -2.45,3.1 -1.55,-2.5 -0.8,-1.35 -3.5,0.95 m 28.25,11.65 -0.05,0.35 -3.55,0.3 -0.85,0.05 0.3,-2.6 0.75,0.3 v 0.05 l 0.05,-0.05 1.65,0.65 1.7,0.95 m -21.95,-6 0.95,-0.3 h 0.85 l 0.95,1.6 -0.75,0.65 -2,1.5 v -3.05 -0.4 m -7.65,0.2 -2.2,-0.25 3.55,-2.5 1.6,3.1 -0.7,-0.1 -2.25,-0.25 m -39.7,10.35 -0.45,-0.55 0.05,-0.2 4.35,-2.1 0.2,1.75 V 213 l -4.15,1.05"
       fill="#ffffea"
       fill-rule="evenodd"
       stroke="none"
       id="path3" />
    <path
       d="m 252.2,195 2.95,2.1 0.1,0.05 1.45,1.3 3.1,3.05 0.25,0.3 1.2,1.3 0.65,0.85 1.7,2.6 0.8,0.3 4.25,1.65 0.25,0.2 q 1.55,1.4 1.6,2.9 l -2.4,2.4 -5,-0.6 -5,0.6 -2.25,3.5 -16.45,6.35 -15.5,-2 v -0.1 l -0.05,-0.2 q -0.35,-0.65 -1.15,-0.65 l -0.45,0.2 -0.5,0.45 -0.75,-0.1 -7.75,-3.8 -2.05,-2.8 v -0.05 l -4.65,2.35 -9.15,-0.85 -0.8,-0.3 q 0.05,-0.5 0.25,-0.95 l 0.75,-2.1 0.65,-0.45 -0.15,0.25 q -0.15,0.25 0,0.6 l 0.1,0.15 0.45,0.55 0.6,0.45 q 0.3,0.65 1.1,0.7 1.35,0.05 2.6,-0.7 l 0.95,-0.85 q 2.1,-2.4 -1.15,-3.3 l -0.35,0.15 -2.55,1.1 -0.4,0.1 2.8,-1.8 1.85,-1.2 0.35,-0.75 0.05,-0.2 7.05,-3.6 0.4,-3.9 3.25,-2.5 4.65,1.95 -0.3,2.65 1.85,0.25 4.15,-1.95 1.45,2.15 -0.65,1.2 2.3,1.1 2.6,-2.45 -2.05,-1.25 1.75,-4.4 8.05,0.75 0.7,0.1 4.3,0.4 1.55,2.5 2.45,-3.1 -1.45,-2.05 0.15,-0.15 4.1,1.05 1.4,-1.5 m 15.75,14.5 v -0.4 l -0.05,-0.25 q -0.3,-0.75 -1.25,-1.05 l -1.6,-0.2 h -0.1 l -0.25,0.15 -0.1,0.15 -0.05,0.05 v -0.05 l -0.75,-0.3 -0.3,2.6 0.85,-0.05 q 0.45,0.95 2.55,1.05 0.55,0 0.75,-0.45 l 0.25,-0.9 0.05,-0.35 m -21.95,-6 -0.25,0.1 h -0.1 l 0.35,0.3 v 3.05 l 2,-1.5 0.65,0.5 -1.35,1.75 3.6,1.45 1.85,-4.15 -2.75,-2.75 -3.05,0.95 -0.95,0.3 m -5.4,0.45 0.7,0.1 -1.6,-3.1 -3.55,2.5 2.2,0.25 -0.5,6.65 3.8,-2.5 -1.05,-3.9 m -24.15,5.8 3.1,0.45 0.3,-3.3 -1.1,0.05 -1.2,-2.25 -3.9,2.35 2.8,2.7"
       fill="#ffff66"
       fill-rule="evenodd"
       stroke="none"
       id="path4" />
    <path
       d="m 270.5,211.6 q 0,1.3 -1,2.65 l -0.45,0.5 -4.6,2.7 q -2.65,8.3 -7.25,12.5 -4.7,4.25 -14.75,6.8 -9.2,2.35 -18.85,-0.9 l -1.75,-0.65 -0.1,-0.05 q -4.35,-1.7 -8.05,-4.25 -5.25,-3.7 -9.2,-9.1 l -7.15,-3.55 q -0.9,-0.9 -0.75,-2.25 l 0.8,0.3 10.4,4.15 1.85,3.5 0.15,-0.1 1.05,1.95 4.7,4.25 3.5,-1.8 1.75,0.8 0.1,2.4 1.4,1 1.1,2.85 13.3,0.75 12.95,-3.3 9.85,-7.05 -0.1,-0.1 4.7,-9.8 3.6,-1.4 0.4,-0.4 2.4,-2.4 m -46.6,10.25 q 0.1,0.6 -0.45,0.95 l -0.4,0.2 q -1.25,0.2 -1.45,-0.95 0,-0.3 0.15,-0.5 l 0.5,-0.45 0.45,-0.2 q 0.8,0 1.15,0.65 l 0.05,0.2 v 0.1 m 32.15,0.95 q -1.8,5.2 -6.55,8.15 l -12.6,3.75 -4.7,-0.95 7.05,-0.65 9.3,-3.55 q 5.4,-2.45 7.5,-6.75 m -40.4,-0.5 2.1,2.95 q 0.15,0.45 1.1,0.25 0.95,-0.25 -0.95,1.55 -1.9,1.8 -1.9,1.2 0,-0.6 -1.55,-0.8 -1.6,-0.2 -2.5,-1.85 -0.95,-1.65 1.25,-3.15 2.15,-1.55 2.45,-0.15 m 6.5,3.4 0.15,-0.2 0.1,-0.2 0.25,-0.25 0.3,-0.05 0.6,-0.15 v -0.1 l 1.15,0.25 0.35,0.15 0.35,0.45 0.25,0.6 -0.1,0.45 -0.55,0.85 -2.45,-0.05 v -0.05 l -0.45,-0.6 q -0.15,-0.55 0.05,-1.1"
       fill="#ccd610"
       fill-rule="evenodd"
       stroke="none"
       id="path5" />
    <path
       d="m 268.1,214 -0.4,0.4 -3.6,1.4 -4.7,9.8 0.1,0.1 -9.85,7.05 -12.95,3.3 -13.3,-0.75 -1.1,-2.85 -1.4,-1 -0.1,-2.4 -1.75,-0.8 -3.5,1.8 -4.7,-4.25 -1.05,-1.95 -0.15,0.1 -1.85,-3.5 -10.4,-4.15 9.15,0.85 4.65,-2.35 v 0.05 l 2.05,2.8 7.75,3.8 0.75,0.1 q -0.15,0.2 -0.15,0.5 0.2,1.15 1.45,0.95 l 0.4,-0.2 q 0.55,-0.35 0.45,-0.95 l 15.5,2 16.45,-6.35 2.25,-3.5 5,-0.6 5,0.6 m -12.05,8.8 q -2.1,4.3 -7.5,6.75 l -9.3,3.55 -7.05,0.65 4.7,0.95 12.6,-3.75 q 4.75,-2.95 6.55,-8.15 m -33.9,2.9 q -0.2,0.55 -0.05,1.1 l 0.45,0.6 v 0.05 l 2.45,0.05 0.55,-0.85 0.1,-0.45 -0.25,-0.6 -0.35,-0.45 -0.35,-0.15 -1.15,-0.25 v 0.1 l -0.6,0.15 -0.3,0.05 -0.25,0.25 -0.1,0.2 -0.15,0.2 m -6.5,-3.4 q -0.3,-1.4 -2.45,0.15 -2.2,1.5 -1.25,3.15 0.9,1.65 2.5,1.85 1.55,0.2 1.55,0.8 0,0.6 1.9,-1.2 1.9,-1.8 0.95,-1.55 -0.95,0.2 -1.1,-0.25 l -2.1,-2.95"
       fill="#e6ef29"
       fill-rule="evenodd"
       stroke="none"
       id="path6" />
    <path
       d="m 259.8,201.5 0.25,0.3 m 1.85,2.15 1.7,2.6 0.8,0.3 m 4.5,1.85 q 1.55,1.4 1.6,2.9 0,1.3 -1,2.65 l -0.45,0.5 -4.6,2.7 q -2.65,8.3 -7.25,12.5 -4.7,4.25 -14.75,6.8 -9.2,2.35 -18.85,-0.9 l -1.75,-0.65 -0.1,-0.05 q -4.35,-1.7 -8.05,-4.25 -5.25,-3.7 -9.2,-9.1 l -7.15,-3.55 q -0.9,-0.9 -0.75,-2.25 0.05,-0.5 0.25,-0.95 l 0.75,-2.1 0.65,-0.45 m 1.2,-0.8 2.8,-1.8 m 4.65,-5.75 0.15,-0.2"
       fill="none"
       stroke="#91756f"
       stroke-linecap="round"
       stroke-linejoin="round"
       stroke-width="0.25"
       id="path7" />
  </g>
  <defs
     id="defs9">
    <radialGradient
       cx="0"
       cy="0"
       gradientTransform="matrix(-0.0912,0,0,0.0603,224.2,228.4)"
       gradientUnits="userSpaceOnUse"
       id="gradient0"
       r="819.20001"
       spreadMethod="pad">
      <stop
         offset="0.0"
         stop-color="#91756f"
         id="stop7" />
      <stop
         offset="0.1803921568627451"
         stop-color="#c2b2af"
         id="stop8" />
      <stop
         offset="0.4"
         stop-color="#ffffff"
         stop-opacity="0.0"
         id="stop9" />
    </radialGradient>
    <clipPath
       clipPathUnits="userSpaceOnUse"
       id="clipPath10">
      <rect
         style="fill:#000000"
         id="rect11"
         width="75.50988"
         height="46.669979"
         x="196.45592"
         y="205.02658" />
    </clipPath>
  </defs>
</svg>
